<svg width="40" height="32" viewBox="0 0 40 32" fill="none" xmlns="http://www.w3.org/2000/svg">
<path d="M38.8486 31.7543L35.2917 26.1648L32.9118 28.5447C32.5349 28.9213 31.924 28.9213 31.5472 28.5447L29.5504 26.5478L25.1953 28.7255C25.0582 28.794 24.9104 28.8274 24.764 28.8274C24.5137 28.8274 24.2668 28.7301 24.0815 28.5449L21.9243 26.3877L18.9969 31.7546H38.8486V31.7543Z" fill="white"/>
<path d="M22.8053 20.7422L25.2862 16.1939C25.8653 15.1322 26.9328 14.4739 28.1416 14.4332C29.3459 14.393 30.4595 14.9772 31.109 15.9977L35.1351 22.3244C38.0888 20.0774 40 16.5271 40 12.5377C40 5.75969 34.4858 0.245483 27.7078 0.245483C21.9181 0.245483 17.0543 4.27026 15.758 9.66784L22.8053 20.7422Z" fill="white"/>
<path d="M24.9541 26.6885L29.3092 24.5108C29.681 24.3252 30.1293 24.398 30.423 24.6914L32.2294 26.4979L34.2513 24.53L29.481 17.0335C29.202 16.5953 28.7234 16.3419 28.2065 16.3617C27.6873 16.3792 27.2288 16.6619 26.9802 17.1178L22.8849 24.6261L24.9541 26.6885Z" fill="white"/>
<path d="M17.9799 21.0789C17.6031 21.4555 16.9922 21.4555 16.6154 21.0789L14.809 19.2725L10.5141 23.5675C10.3262 23.7553 10.0792 23.8501 9.83165 23.8501C9.60269 23.8501 9.3732 23.769 9.1899 23.6055L5.99717 20.7599L0 31.7544H16.7987L21.7496 22.6776L19.662 19.3969L17.9799 21.0789Z" fill="white"/>
<path d="M9.79368 21.5588L14.1267 17.2256C14.5036 16.849 15.1145 16.849 15.4913 17.2256L17.2977 19.032L18.6005 17.729L14.026 10.5403C13.7471 10.1022 13.2703 9.84726 12.7517 9.86854C12.2325 9.88605 11.774 10.1687 11.5253 10.6248L6.94385 19.0241L9.79368 21.5588Z" fill="white"/>
</svg>
