<svg width="125" height="125" viewBox="0 0 125 125" fill="none" xmlns="http://www.w3.org/2000/svg">
<g clip-path="url(#clip0_14_86)">
<path d="M111.066 12.0154H90.8723V50.3837H111.066V12.0154Z" fill="#680B09"/>
<path d="M113.086 7.97656H88.853V12.0153H113.086V7.97656Z" fill="#C43D27"/>
<path d="M123.183 108.946H0V117.024H123.183V108.946Z" fill="#207700"/>
<path d="M14.1357 91.3773L18.1745 89.3579L22.2133 91.3773V113.187L18.1745 115.206L14.1357 113.187V91.3773Z" fill="#207700"/>
<path d="M0 91.3773L4.03877 89.3579L8.07754 91.3773V113.187L4.03877 115.206L0 113.187V91.3773Z" fill="#207700"/>
<path d="M18.1745 98.8489H4.03882V102.888H18.1745V98.8489Z" fill="#239B02"/>
<path d="M111.066 56.4419H28.2714V112.985H111.066V56.4419Z" fill="white"/>
<path d="M28.2714 56.4419H111.066V112.985" fill="#E8F9FC"/>
<path d="M64.6203 108.946V71.1833C64.6203 69.3659 64.0145 68.5581 62.1971 68.5581H43.4168C41.5993 68.5581 40.3877 69.5678 40.3877 71.1833V108.946H64.6203Z" fill="#FCA12A"/>
<path d="M64.6203 90.7714V71.1833C64.6203 69.3659 64.0145 68.5581 62.1971 68.5581H43.4168C41.5993 68.5581 40.3877 69.5678 40.3877 71.1833" fill="#E58613"/>
<path d="M62.1971 88.954C62.1971 90.7714 60.7835 92.3869 58.7641 92.3869C56.9467 92.3869 55.3312 90.9733 55.3312 88.954C55.3312 87.1365 56.7447 85.521 58.7641 85.521C60.5816 85.521 62.1971 86.9346 62.1971 88.954Z" fill="#DB5435"/>
<path d="M61.1873 86.5308C62.6009 87.7424 62.399 89.9637 61.1873 91.3773C59.9757 92.7909 57.7544 92.5889 56.3408 91.3773" fill="#C43D27"/>
<path d="M86.8336 78.655H98.9499V71.1833C98.9499 69.3659 96.9305 68.5581 95.1131 68.5581H86.8336V78.655Z" fill="#0E75AF"/>
<path d="M84.8142 78.655V68.5581H75.727C73.9095 68.5581 72.6979 69.5678 72.6979 71.1833V78.655H84.8142Z" fill="#1EA4C4"/>
<path d="M84.8142 80.6746H72.6979V88.5502C72.6979 90.3676 73.9095 90.7715 75.727 90.7715H84.8142V80.6746Z" fill="#0E75AF"/>
<path d="M86.8336 80.6746V90.7715H95.1131C96.9305 90.7715 98.9499 90.3676 98.9499 88.5502V80.6746H86.8336Z" fill="#1EA4C4"/>
<path d="M125 56.4419L69.6688 13.2271L14.5396 56.4419H125Z" fill="#C43D27"/>
<path d="M125 56.4419L69.6688 13.2271L41.5994 56.4419H125Z" fill="#AA1E0F"/>
<path d="M30.0889 44.3254H109.451L104.402 40.2866H35.1373L30.0889 44.3254Z" fill="#C43D27"/>
<path d="M48.0614 30.1898H91.4782L88.853 28.1704H50.6866L48.0614 30.1898Z" fill="#C43D27"/>
</g>
<defs>
<clipPath id="clip0_14_86">
<rect width="125" height="125" fill="white"/>
</clipPath>
</defs>
</svg>
