<svg width="40" height="40" viewBox="0 0 40 40" fill="none" xmlns="http://www.w3.org/2000/svg">
<path d="M39.6094 22.5559L35.6094 18.6429C35.3594 18.3984 35.0201 18.2608 34.6667 18.2608H24V15.6521H30.6667C31.4028 15.6521 32.0001 15.0683 32.0001 14.3478V6.52169C32.0001 5.80115 31.4028 5.21732 30.6667 5.21732H24V1.30437C24 0.583826 23.4027 0 22.6667 0H17.3333C16.5972 0 15.9999 0.583826 15.9999 1.30437V5.2174H5.33329C4.97998 5.2174 4.64057 5.35498 4.3906 5.59959L0.390582 9.51262C-0.130194 10.0217 -0.130194 10.8479 0.390582 11.3571L4.3906 15.27C4.64057 15.5146 4.9799 15.6522 5.33329 15.6522H16V18.2609H9.33331C8.59722 18.2609 7.99994 18.8447 7.99994 19.5652V27.3913C7.99994 28.1118 8.59722 28.6957 9.33331 28.6957H16V37.3913H12C11.2639 37.3913 10.6666 37.9751 10.6666 38.6956C10.6666 39.4162 11.2639 40 12 40C18.1979 40 22.8158 40 28 40C28.7361 40 29.3334 39.4162 29.3334 38.6956C29.3334 37.9751 28.7361 37.3913 28 37.3913H24V28.6955H34.6667C35.02 28.6955 35.3594 28.5579 35.6094 28.3133L39.6094 24.4003C40.1302 23.8913 40.1302 23.0651 39.6094 22.5559ZM21.3334 37.3912H18.6667V28.6955H21.3334V37.3912ZM21.3334 18.2608H18.6667V15.6521H21.3334V18.2608ZM21.3334 5.2174H18.6667V2.60866H21.3334V5.2174Z" fill="white"/>
</svg>
