<svg width="120" height="120" viewBox="0 0 120 120" fill="none" xmlns="http://www.w3.org/2000/svg">
<path d="M34.7025 49.2974H30.8107V60.973H34.7025V49.2974Z" fill="#875B51"/>
<path d="M10.8324 49.2974H6.94055V60.973H10.8324V49.2974Z" fill="#875B51"/>
<path d="M113.06 49.2974H109.168V60.973H113.06V49.2974Z" fill="#875B51"/>
<path d="M89.1891 49.2974H85.2972V60.973H89.1891V49.2974Z" fill="#875B51"/>
<path d="M60.1299 0V31.1351C68.7277 31.1351 75.6976 24.1652 75.6976 15.5674C75.6976 6.96961 68.7275 0 60.1299 0Z" fill="#FFA850"/>
<path d="M67.9134 15.5677C67.9134 6.96984 64.4287 0 60.1298 0C51.532 0 44.5621 6.96984 44.5621 15.5677C44.5621 24.1655 51.532 31.1353 60.1298 31.1353C64.4287 31.1351 67.9134 24.1652 67.9134 15.5677Z" fill="#FCDA49"/>
<path d="M111.373 59.0271L106.184 88.5406L111.373 118.054H119.157V59.0271H111.373Z" fill="#A3DC93"/>
<path d="M73.1028 59.0271L60.1299 74.4L47.1568 59.0271H1.10278V118.054H28.9946L60.1299 102.681L91.265 118.054H111.373V59.0271H73.1028Z" fill="#CAED73"/>
<path d="M32.7567 31.7839L40.8 51.2434H32.7567L30.989 44.6094L32.7567 31.7839Z" fill="#AAC36D"/>
<path d="M32.7567 31.7839V51.2434H24.7134L32.7567 31.7839Z" fill="#CAED73"/>
<path d="M8.88655 31.7839L16.9298 51.2434H8.88655L7.1189 44.6094L8.88655 31.7839Z" fill="#AAC36D"/>
<path d="M8.88654 31.7839V51.2434H0.843262L8.88654 31.7839Z" fill="#CAED73"/>
<path d="M111.113 31.7839L119.157 51.2434H111.113L109.346 44.6094L111.113 31.7839Z" fill="#AAC36D"/>
<path d="M111.113 31.7839V51.2434H103.07L111.113 31.7839Z" fill="#CAED73"/>
<path d="M87.2432 31.7839L95.2865 51.2434H87.2432L85.4756 44.6094L87.2432 31.7839Z" fill="#AAC36D"/>
<path d="M87.2432 31.7839V51.2434H79.2L87.2432 31.7839Z" fill="#CAED73"/>
<path d="M73.1027 59.0271H47.1567L28.9945 118.054H91.2649L73.1027 59.0271Z" fill="#59473C"/>
<path d="M103.589 89.5134C102.515 89.5134 101.643 88.6425 101.643 87.5674V84.9729C101.643 83.898 102.514 83.0269 103.589 83.0269C104.664 83.0269 105.535 83.8978 105.535 84.9729V87.5674C105.535 88.6425 104.664 89.5134 103.589 89.5134Z" fill="#AAC36D"/>
<path d="M24.4539 94.7029C23.3793 94.7029 22.5079 93.832 22.5079 92.7569V90.1623C22.5079 89.0875 23.3791 88.2163 24.4539 88.2163C25.5288 88.2163 26.4 89.0872 26.4 90.1623V92.7569C26.4 93.832 25.5288 94.7029 24.4539 94.7029Z" fill="#AAC36D"/>
<path d="M16.6701 86.919C15.5955 86.919 14.7241 86.048 14.7241 84.9729V82.3784C14.7241 81.3035 15.5953 80.4324 16.6701 80.4324C17.745 80.4324 18.6162 81.3033 18.6162 82.3784V84.9729C18.6162 86.048 17.745 86.919 16.6701 86.919Z" fill="#AAC36D"/>
<path d="M95.8054 79.135C94.7308 79.135 93.8594 78.2641 93.8594 77.189V74.5945C93.8594 73.5196 94.7305 72.6484 95.8054 72.6484C96.8802 72.6484 97.7514 73.5194 97.7514 74.5945V77.189C97.7512 78.2641 96.88 79.135 95.8054 79.135Z" fill="#A3DC93"/>
<path d="M8.88657 112.216C7.81196 112.216 6.94055 111.345 6.94055 110.27V107.676C6.94055 106.601 7.81172 105.729 8.88657 105.729C9.96141 105.729 10.8326 106.6 10.8326 107.676V110.27C10.8324 111.345 9.96118 112.216 8.88657 112.216Z" fill="#A3DC93"/>
<path d="M60.1298 120C59.0552 120 58.1838 119.129 58.1838 118.054V107.459C58.1838 106.385 59.055 105.513 60.1298 105.513C61.2045 105.513 62.0759 106.384 62.0759 107.459V118.054C62.0756 119.129 61.2045 120 60.1298 120Z" fill="white"/>
<path d="M60.1298 99.0273C59.0552 99.0273 58.1838 98.1564 58.1838 97.0813V87.7839C58.1838 86.7091 59.055 85.8379 60.1298 85.8379C61.2045 85.8379 62.0759 86.7088 62.0759 87.7839V97.0813C62.0756 98.1562 61.2045 99.0273 60.1298 99.0273Z" fill="white"/>
<path d="M60.1298 79.3512C59.0552 79.3512 58.1838 78.4803 58.1838 77.4052V66.8108C58.1838 65.7359 59.055 64.8647 60.1298 64.8647C61.2045 64.8647 62.0759 65.7357 62.0759 66.8108V77.4052C62.0756 78.4803 61.2045 79.3512 60.1298 79.3512Z" fill="white"/>
</svg>
