<svg width="21" height="21" viewBox="0 0 21 21" fill="none" xmlns="http://www.w3.org/2000/svg">
<path d="M20.7749 15.9263C19.9931 14.4483 17.2785 12.8457 17.159 12.7756C16.8102 12.577 16.4462 12.4719 16.1056 12.4719C15.5991 12.4719 15.1845 12.704 14.9334 13.126C14.5363 13.601 14.0438 14.1563 13.9243 14.2423C12.9993 14.87 12.2752 14.7987 11.474 13.9974L7.00253 9.52485C6.2064 8.72862 6.13321 7.99546 6.75649 7.07541C6.84369 6.95509 7.39883 6.46217 7.87378 6.06463C8.17666 5.88436 8.38455 5.61648 8.47564 5.28787C8.59672 4.85062 8.50757 4.33628 8.22182 3.83517C8.15447 3.71992 6.55132 1.00454 5.07431 0.223102C4.79869 0.0770928 4.48802 0 4.17658 0C3.66348 0 3.18075 0.20013 2.81792 0.562622L1.82987 1.55042C0.267215 3.11291 -0.298441 4.8841 0.147699 6.81454C0.519872 8.42336 1.60447 10.1354 3.3719 11.9027L9.09658 17.6282C11.3335 19.8654 13.4661 21 15.4352 21C15.4352 21 15.4352 21 15.4356 21C16.8838 21 18.2339 20.3844 19.4473 19.1708L20.435 18.183C21.0353 17.583 21.1716 16.6758 20.7749 15.9263Z" fill="#EF9F4F"/>
</svg>
