<svg width="964" height="378" viewBox="0 0 964 378" fill="none" xmlns="http://www.w3.org/2000/svg">
<path d="M648.88 313.012C659.25 320.442 667.23 329.742 671.51 341.942C675.325 352.319 675.714 363.647 672.62 374.262C671.38 378.512 669.74 375.922 668.22 374.512C654.64 361.842 639.57 351.412 622.43 344.112C613.72 340.392 604.43 339.422 595.13 339.022C581.18 338.432 567.23 339.222 553.26 337.402C537.08 335.302 523.01 328.992 510.09 319.492C509.719 319.159 509.328 318.848 508.92 318.562C507.51 317.762 506.37 315.692 504.74 316.282C502.74 316.992 503.19 319.402 503.14 321.092C502.82 331.852 500.27 342.142 496.85 352.242C494.12 360.332 489.93 367.672 485.25 374.782C482.94 378.292 481.08 378.282 478.66 374.842C468.71 360.642 463.37 344.772 461.19 327.712C460.88 325.242 460.85 322.712 460.46 320.272C460.24 318.902 460.98 316.922 459.2 316.272C457.63 315.722 456.5 317.272 455.38 318.142C447.484 324.515 438.596 329.548 429.07 333.042C418.51 337.042 407.41 338.132 396.28 338.702C381.85 339.452 367.28 337.982 352.95 340.702C344.315 342.498 336.047 345.747 328.5 350.312C316.68 357.182 305.42 364.852 295.68 374.532C293.02 377.182 292.02 377.042 291.01 373.252C284.5 349.032 295.72 323.912 318.85 310.892C326.878 306.479 335.551 303.357 344.55 301.642C348.29 300.882 348.37 299.582 347.18 296.782C344.76 290.778 343.344 284.416 342.99 277.952C341.49 258.292 365.63 232.052 391.66 236.632C404.04 238.822 415.04 243.212 421.79 254.632C426.87 263.232 427.9 272.272 423.08 281.192C418.03 290.542 409.51 295.192 399.08 295.932C392.3 296.412 387.24 292.402 382.55 287.932C380.31 285.812 378.81 282.932 375.97 281.282C373.65 291.132 381.11 303.942 391.88 307.282C410.64 313.052 427.25 308.912 441.45 295.192C451.55 285.432 458.88 274.382 456.84 259.632C454.67 243.832 446.36 231.982 433.22 222.632C409.72 205.882 378.93 208.962 360.52 223.442C350.84 231.062 342.96 240.612 335.06 250.012C318.95 269.212 303.57 289.012 286.96 307.792C265.96 331.452 240.84 349.792 211.34 361.572C197.82 366.982 183.34 368.482 168.94 369.972C139.53 372.972 112.21 365.602 85.65 354.062C79.4 351.352 73.21 348.522 67 345.732C65.15 344.902 63.37 343.862 61.85 346.362C53.71 359.792 40.78 362.682 26.51 361.752C18.1647 361.167 10.1052 358.47 3.09 353.912C2.09 353.262 0.389983 352.842 0.669983 351.112C0.909983 349.712 2.3 349.682 3.38 349.292C19.79 343.292 27.38 329.772 24.96 311.822C23.13 298.002 20.32 284.202 20.49 270.232C20.86 239.812 35.35 217.322 60.49 201.032C68.18 196.032 76.72 192.882 85.83 188.752C76.94 185.222 69.04 181.922 61.6 177.512C42.73 166.342 30.45 150.072 23.42 129.512C18.92 116.402 20.1 103.082 21.84 89.7218C23.04 80.5018 24.63 71.2818 25.07 62.0218C25.87 44.7818 19.38 35.1918 3.42999 28.3418C2.35999 27.8818 1.31 27.4018 0 26.8218C2.32 23.3218 5.99998 22.0718 9.41998 20.5718C23.9 14.2518 38.29 13.2618 52.42 21.5718C56.1239 23.5379 59.1437 26.5821 61.08 30.3018C62.45 33.1318 63.68 33.6318 66.78 32.1418C83.26 24.2218 100.13 17.1418 117.73 12.1418C138.06 6.31184 158.79 6.78182 179.64 8.87182C209.34 11.8718 234.03 25.6318 257.57 42.9318C277.86 57.8418 293.1 77.1918 308.75 96.3218C323.75 114.702 338.6 133.322 355.59 149.962C374.59 168.612 405.49 171.812 428.38 157.962C441.72 149.902 451.61 139.692 455.54 124.022C458.62 111.762 456.54 100.962 448.97 91.1418C435.84 74.1418 419.45 64.8718 397.13 68.9518C382.77 71.5718 375.68 81.3818 375.27 96.8618C377.27 96.3318 378.09 94.7118 379.16 93.3518C382.283 89.407 386.21 86.172 390.68 83.8618C400.22 78.8618 415.68 84.3618 422.15 94.8618C430.38 108.222 425.02 126.672 409.93 134.992C379.77 151.612 352.21 134.682 344.22 109.072C341.53 100.472 342.86 91.6318 346.29 83.2218C348.9 76.8418 348.85 76.9918 341.94 75.4518C321.23 70.8218 304.12 61.1419 294.53 41.1519C288.81 29.5579 287.619 16.2471 291.19 3.82177C292.27 -0.118225 293.61 1.4918 295.47 3.2218C306.922 13.819 319.718 22.8633 333.53 30.1218C344.86 36.1218 356.91 38.4118 369.53 38.7218C384.82 39.1018 400.14 38.6218 415.34 41.1318C430.01 43.5418 442.67 50.1318 454.5 58.7418C455.99 59.8318 457.17 62.5318 459.37 61.2418C461.14 60.2418 460.69 57.6118 460.8 55.7018C461.712 38.3738 466.97 21.554 476.09 6.79187C481.6 -2.20813 481.69 -2.20821 487.38 6.46179C496.79 20.8218 501.38 36.7918 502.99 53.7318C503.26 56.4618 502.42 60.2619 504.6 61.5419C506.6 62.6919 508.6 59.2618 510.51 57.8318C527.11 45.5718 545.72 39.8318 566.32 39.2318C578.78 38.8418 591.25 39.1318 603.72 38.0918C618.39 36.8718 630.79 30.5018 642.79 22.9618C651.865 17.4014 660.322 10.8915 668.02 3.54187C670.89 0.741868 671.85 1.01176 673.02 5.06176C679.84 29.3518 666.29 57.7019 640.47 69.2719C634.08 72.1419 627.59 74.7518 620.63 75.7118C616.05 76.3518 615.3 78.0818 617.07 82.2618C621.07 91.6818 622.5 101.422 618.98 111.392C612.77 128.982 592.73 146.652 567.5 140.242C556.03 137.332 546.38 132.122 540.94 121.132C533.31 105.682 540.11 89.4618 556.25 83.5018C567 79.5018 573.39 81.8718 583.51 92.1418C584.76 93.4218 585.46 95.2518 587.32 95.9318C589.95 88.5018 584.32 75.9318 575.76 72.1418C558.6 64.5118 542.25 66.8518 527.48 78.2418C519.56 84.3518 512.27 91.4818 509.04 101.242C503.2 118.862 508.59 134.242 520.98 146.912C545.14 171.682 579.1 171.852 602.25 154.982C614.25 146.262 623.34 134.292 632.83 122.982C647.83 104.982 662.36 86.6618 677.57 68.8918C690.52 53.7618 706.42 41.9518 723.08 31.2018C735.85 22.9618 749.25 16.0318 764.18 12.5118C785.1 7.57184 806.27 5.91184 827.59 8.51184C852.02 11.5118 874.17 21.6118 896.2 31.8218C899.31 33.2618 900.81 33.6018 902.75 30.0818C907.98 20.5618 917.5 17.3918 927.3 15.9518C939.05 14.2118 950 17.7618 960.24 23.5018C961.51 24.2118 963.31 24.8618 963.06 26.5918C962.85 28.0118 961 28.1018 959.85 28.5918C949.51 32.7018 941.99 39.4118 939.44 50.5918C938.01 56.8418 938.59 63.1418 939.35 69.4418C940.76 81.1418 942.93 92.8318 943.28 104.572C944.22 136.572 929.03 160.012 902.86 177.062C895.51 181.852 887.44 185.342 877.97 188.452C884.55 191.532 890.2 194.022 895.73 196.762C920.14 208.862 935.5 228.332 942.06 254.632C945.19 267.172 942.8 279.742 941.32 292.292C940.32 301.032 938.64 309.702 938.66 318.562C938.66 333.462 945.78 343.782 959.72 349.102C961.03 349.602 963.07 349.442 963.12 351.392C963.12 352.832 961.54 353.532 960.44 354.132C946.26 361.902 931.54 364.912 915.93 358.692C910.39 356.482 905.65 353.052 902.82 347.692C901.14 344.522 899.5 344.392 896.49 345.812C881 353.092 865.27 359.812 848.84 364.722C830.78 370.092 812.34 371.422 793.55 369.832C770.89 367.902 749.42 362.532 729.71 350.702C702.59 334.432 679.86 313.562 660.56 288.472C644.49 267.582 627.62 247.232 609 228.472C605.37 224.812 601.53 221.472 596.79 219.212C594.47 216.482 591.34 215.572 587.95 215.212H587.85C587.35 214.782 586.92 214.142 586.35 213.962C575.35 210.542 564.21 210.282 553 212.172C550 212.672 546.66 212.652 544.37 215.292L544.08 215.382C540.107 215.979 536.485 217.993 533.88 221.052H533.96C533.187 221.002 532.417 221.188 531.751 221.584C531.086 221.98 530.555 222.569 530.23 223.272L530.08 223.352C529.567 223.328 529.063 223.492 528.663 223.815C528.263 224.137 527.995 224.595 527.91 225.102H527.97C522.233 227.78 517.641 232.419 515.02 238.182C509.54 243.852 508.02 251.302 506.82 258.542C505.6 266.032 505.63 273.762 510.97 280.212C514.64 289.632 521.79 295.912 529.97 301.212C534.87 306.422 541.19 308.312 548.05 308.962L548.36 309.022C554.14 310.862 559.92 311.672 565.7 309.022H565.97C569.81 309.022 573.3 308.082 576.09 305.262H576.03C580.71 303.902 583.51 300.732 584.86 296.152L584.91 296.012C588.42 291.212 589.01 285.862 588.64 279.522C586.12 281.522 584.7 283.062 584.19 285.272L584.03 285.382C583.46 285.382 583.18 285.652 583.25 286.242L583.11 286.482C580.79 288.082 578.34 289.562 576.93 292.142C575.931 292.282 574.97 292.619 574.103 293.134C573.236 293.649 572.481 294.332 571.88 295.142H571.93C564.07 296.982 556.93 294.492 549.93 291.472L549.67 291.352C549.076 290.577 548.434 289.839 547.75 289.142C538.08 280.392 535.54 268.992 541 257.272C542.5 254.052 544.82 251.212 546.77 248.192L546.9 247.992C557.34 240.412 568.65 235.812 581.9 236.812C586.1 237.132 589.9 238.812 593.98 239.292C597.15 241.552 600.23 243.972 603.98 245.292C606.029 248.512 608.76 251.243 611.98 253.292L612.98 254.352L612.92 254.292C613.409 256.758 614.845 258.933 616.92 260.352V260.282C617.073 261.426 617.327 262.553 617.68 263.652C621.86 273.542 621.12 283.432 617.78 293.312C614.91 301.802 614.86 301.792 624.07 303.002C624.736 303.048 625.404 303.048 626.07 303.002L626.34 303.072C627.094 303.794 627.999 304.339 628.991 304.666C629.982 304.993 631.034 305.094 632.07 304.962L632.38 305.062C635.28 307.182 638.65 308.162 642.05 309.062H642.17C644.011 310.958 646.329 312.323 648.88 313.012ZM222 240.942C223.64 247.242 225.39 252.412 226.29 257.722C228.53 271.052 228.75 284.182 221.29 296.352C213.56 308.972 201.4 315.532 188.29 320.732C185.36 321.892 185.52 320.092 186.16 317.832C189.89 304.642 191.98 291.212 191.07 277.472C190.68 271.472 189.48 265.602 186.33 260.332C185.84 259.512 185.33 258.432 184.1 258.752C183.1 259.002 183.31 260.062 183.1 260.812C181.82 264.578 180.527 268.342 179.22 272.102C171.08 295.422 156.45 311.402 130.98 315.832C109.6 319.542 81.98 301.892 84.31 277.002C85.39 265.612 89.15 255.602 99.75 249.562C104.01 247.132 104.75 247.802 105.53 252.562C106.75 260.272 108.94 267.652 116.74 271.432C125.09 275.432 133.46 275.242 140.52 269.032C148.94 261.642 156.22 252.962 153.7 240.692C150.93 227.172 142.11 217.692 130.23 211.322C123.869 207.903 116.538 206.737 109.43 208.012C90.11 211.152 76.59 222.502 66.48 238.392C57.97 251.782 52.87 266.212 56.61 282.392C61.93 305.392 76.25 321.492 96.24 332.982C109.13 340.392 123.45 343.532 137.97 345.722C157.14 348.612 176.04 347.722 194.71 341.862C219.6 334.082 239.96 319.142 258.71 301.862C284.46 278.122 305.19 249.942 327.26 222.962C340.36 206.962 355.55 194.542 376.4 190.372C377.51 190.152 379.17 190.482 379.4 188.482C379.009 188.185 378.574 187.952 378.11 187.792C360.68 184.782 346.23 176.482 334.68 163.252C325.95 153.252 317.58 142.932 309.19 132.642C289.35 108.332 269.65 83.9218 244.94 64.1718C226.41 49.3518 206.29 37.8118 182.76 32.9318C165.03 29.2618 147.4 30.2618 129.76 33.5218C105.57 37.9718 84.46 47.8618 69.41 68.0118C57.77 83.6018 51.71 100.782 57.56 120.372C62.2333 136.677 72.3607 150.885 86.25 160.622C107.98 175.972 131.14 172.822 146.16 152.972C157.59 137.872 156.77 124.612 143.31 111.192C136.31 104.272 128.05 101.892 118.64 105.482C109.77 108.862 106.64 116.412 105.51 125.032C104.84 130.032 103.97 130.652 99.42 128.032C88.79 122.032 82.08 106.032 84.57 92.9718C87.66 76.8818 98.57 68.1618 113.08 63.3518C131.01 57.3518 154.67 66.3518 167.38 83.0818C174.85 92.9218 178.8 104.372 182.83 115.822C183.23 116.952 182.66 118.952 184.49 118.962C185.83 118.962 186.56 117.472 187.17 116.272C189.78 111.122 190.71 105.502 191.06 99.8918C191.765 86.4206 190.072 72.931 186.06 60.0518C185.78 59.1118 185.06 58.1618 185.76 57.2418C186.6 56.1618 187.63 57.0418 188.47 57.3318C200.47 61.5018 211.16 67.7518 218.98 78.0018C228.87 91.0018 228.82 105.792 226.11 120.892C225.22 125.892 223.56 130.712 222.25 135.622C222.93 135.802 223.25 136.042 223.52 135.942C224.89 135.352 226.24 134.702 227.58 134.042C245.18 125.362 263.38 118.912 283.35 118.912C284.46 118.912 285.84 118.152 286.42 119.602C286.85 120.692 285.61 121.302 284.99 122.002C276.983 131.332 268.021 139.798 258.25 147.262C252.62 151.502 246.85 155.562 241.15 159.702L241.41 160.922C248.48 161.233 255.528 161.937 262.52 163.032C288.911 166.659 314.53 174.584 338.36 186.492C339.41 187.022 341.23 187.142 341.05 188.962C340.91 190.302 339.54 190.622 338.53 191.132C313.37 203.872 286.69 211.582 258.78 215.332C253.02 216.102 247.04 215.802 240.56 218.032C258.49 229.512 273.96 242.362 287.56 259.082C263.41 259.302 242.75 251.642 222 240.942ZM778.23 56.3818C778.305 57.0865 778.305 57.7971 778.23 58.5018C773.675 72.6168 771.898 87.481 773 102.272C773.253 107.44 774.668 112.485 777.14 117.032C777.67 117.972 778.31 119.282 779.68 119.032C780.87 118.802 780.68 117.462 780.96 116.552C784.46 105.632 788.35 94.9019 794.85 85.2919C809.41 63.8119 846.85 48.7518 872.07 77.1818C884.69 91.3718 880.79 119.252 864.6 127.972C859.81 130.552 859.23 130.272 858.5 125.072C856.87 113.492 851.18 106.462 841.86 104.522C825.48 101.102 806.35 120.322 810.2 136.992C815.2 158.702 837.96 179.272 867.67 166.172C884.17 158.902 894.98 145.952 902.57 130.102C907.23 120.392 909.86 110.102 908.03 99.1918C904.66 79.1918 893.75 63.7718 877.91 51.5618C863.66 40.5618 847.02 35.7818 829.65 32.7618C804.45 28.3818 780.12 30.5818 756.46 40.8818C734.1 50.6218 715.69 65.6718 698.55 82.4518C675.95 104.572 657 129.882 637.07 154.302C624.92 169.202 611.16 181.302 592.14 186.522C589.42 187.262 586.3 186.832 582.79 189.352C591.645 190.838 600.215 193.696 608.19 197.822C622.02 204.992 631.42 216.822 641.05 228.512C659.31 250.662 676.71 273.572 697.05 293.952C711.41 308.342 726.91 321.362 744.71 331.322C772.27 346.742 801.71 350.492 832.57 344.692C854.68 340.482 874.68 332.482 889.97 315.242C901.55 302.152 909.5 287.242 908.32 269.242C907.19 251.982 898.89 237.672 887.11 225.242C877.58 215.242 865.95 208.812 852.27 207.642C834.59 206.132 820.27 216.262 811.97 234.582C805.89 247.942 815.77 268.662 829.97 272.782C842.29 276.372 854.86 271.202 858.09 255.182C858.54 252.962 856.57 248.782 860.8 248.472C863.56 248.272 866.1 250.342 868.22 252.222C869.979 253.738 871.538 255.472 872.86 257.382C884.93 275.562 882.86 301.172 854.53 313.122C838.07 320.052 822.7 315.312 808.63 306.182C794.34 296.892 787.93 282.022 782.63 266.562C781.71 263.872 781.73 258.892 779.26 259.072C775.98 259.302 775.47 264.002 774.68 267.172C770.46 283.992 773.22 300.482 777.27 316.892C777.57 318.102 779.13 319.372 777.94 320.502C776.75 321.632 775.14 320.582 773.8 319.992C771.51 318.992 769.19 318.072 766.95 316.992C757.08 312.222 748.33 306.062 742.57 296.462C734.83 283.542 734.69 269.752 737.93 255.462C738.93 250.882 741.15 246.522 741.34 241.722C740.83 241.642 740.63 241.552 740.51 241.612C738.72 242.462 736.95 243.342 735.18 244.212C718.18 252.562 700.42 258.402 681.27 259.012C680 259.012 678.27 259.722 677.55 258.482C676.65 256.822 678.63 255.942 679.55 254.912C689.709 243.252 701.301 232.924 714.05 224.172C716.88 222.172 720.25 220.742 722.75 217.512C721.4 217.272 720.61 217.082 719.81 217.002C687.07 214.002 655.57 206.482 626.11 191.472C624.79 190.802 622.89 190.592 622.64 188.972C622.33 186.972 624.58 186.972 625.74 186.372C654.384 172.101 685.528 163.532 717.44 161.142C719.11 161.002 721.11 161.702 722.36 159.832C721.72 158.202 720.24 157.712 719.01 156.902C704.24 147.291 690.85 135.711 679.21 122.482C678.47 121.642 676.69 120.822 677.72 119.222C678.31 118.322 679.52 118.672 680.52 118.702C698.95 119.242 716.19 124.312 732.68 132.322C735.41 133.652 737.91 135.752 741.8 135.892C736.55 119.422 732.64 103.052 739.86 86.6218C747.13 70.0518 761.5 62.0718 778.23 56.3818ZM404.23 188.812C426.07 194.252 445.23 201.872 459.88 217.632C474.68 233.562 480.07 253.402 481.97 274.722C484.42 225.442 512.84 199.722 558.33 188.842C512.78 178.222 484.69 152.482 481.88 103.482C478.95 152.482 450.93 178.212 404.27 188.812H404.23ZM140.9 188.722C144.81 190.942 148.03 192.602 151.07 194.522C162.45 201.702 170.5 212.002 177.2 223.372C179.64 227.512 181.56 227.712 185.05 224.752C192.54 218.402 199.72 211.752 205.48 203.752C206.385 202.401 207.565 201.256 208.944 200.395C210.323 199.533 211.869 198.973 213.48 198.752C221.97 197.312 230.48 195.542 238.22 191.452C239.54 190.762 241.41 190.452 241.46 188.792C241.51 187.132 239.58 187.122 238.46 186.562C230.84 182.854 222.66 180.428 214.25 179.382C212.531 179.243 210.866 178.723 209.374 177.857C207.883 176.992 206.603 175.805 205.63 174.382C199.83 166.212 192.47 159.552 184.86 153.092C181.09 149.902 179.46 150.692 177.13 154.592C168.57 168.982 157.84 181.402 140.94 188.722H140.9ZM821.9 189.232C816.74 185.792 812.03 182.982 807.68 179.702C798.93 173.112 792.57 164.392 786.8 155.232C783.37 149.772 783.44 149.662 778.58 153.392C770.784 159.331 763.871 166.347 758.05 174.232C757.097 175.661 755.838 176.861 754.365 177.745C752.891 178.629 751.24 179.174 749.53 179.342C741.272 180.367 733.237 182.731 725.74 186.342C724.49 186.972 722.35 187.072 722.37 188.842C722.39 190.612 724.3 190.842 725.63 191.492C733.73 195.652 742.55 197.372 751.36 199.002C752.485 199.152 753.568 199.532 754.54 200.119C755.512 200.705 756.353 201.486 757.01 202.412C763.626 211.164 771.385 218.991 780.08 225.682C782.49 227.532 783.78 227.802 785.46 224.922C794.26 209.912 805.31 197.152 821.94 189.232H821.9Z" fill="#C1A165" fill-opacity="0.1"/>
</svg>
